<svg width="36" height="36" viewBox="0 0 36 36" fill="none" xmlns="http://www.w3.org/2000/svg">
<rect width="36" height="36" rx="8" fill="#002647"/>
<path d="M15.4103 22H11.2051M19.6154 22H18.0385M7 16H28.0256M7 18C7 14.229 7 12.343 8.2321 11.172C9.46315 10 11.4459 10 15.4103 10H19.6154C23.5798 10 25.5625 10 26.7935 11.172C28.0256 12.343 28.0256 14.229 28.0256 18C28.0256 21.771 28.0256 23.657 26.7935 24.828C25.5625 26 23.5798 26 19.6154 26H15.4103C11.4459 26 9.46315 26 8.2321 24.828C7 23.657 7 21.771 7 18Z" stroke="#FDFDFD" stroke-width="1.5" stroke-linecap="round"/>
</svg>
