<svg width="64" height="64" viewBox="0 0 64 64" fill="curentColor" xmlns="http://www.w3.org/2000/svg">
<path d="M28.0254 44.186L15.6821 31.8399L19.7956 27.7264L28.0254 35.9533L44.4792 19.4966L48.5956 23.6129L28.0254 44.186Z" fill="currentColor"/>
<path fill-rule="evenodd" clip-rule="evenodd" d="M0 32C0 14.3273 14.3273 0 32 0C49.6727 0 64 14.3273 64 32C64 49.6727 49.6727 64 32 64C14.3273 64 0 49.6727 0 32ZM32 58.1818C28.5618 58.1818 25.1572 57.5046 21.9807 56.1889C18.8041 54.8731 15.9179 52.9445 13.4867 50.5133C11.0555 48.0821 9.12691 45.1959 7.81115 42.0193C6.49539 38.8428 5.81818 35.4382 5.81818 32C5.81818 28.5618 6.49539 25.1572 7.81115 21.9807C9.12691 18.8041 11.0555 15.9179 13.4867 13.4867C15.9179 11.0555 18.8041 9.12691 21.9807 7.81115C25.1572 6.49539 28.5618 5.81818 32 5.81818C38.9439 5.81818 45.6033 8.57662 50.5133 13.4867C55.4234 18.3967 58.1818 25.0561 58.1818 32C58.1818 38.9439 55.4234 45.6033 50.5133 50.5133C45.6033 55.4234 38.9439 58.1818 32 58.1818Z" fill="currentColor"/>
</svg>
