<svg width="25" height="23" viewBox="0 0 25 23" fill="currentColor" xmlns="http://www.w3.org/2000/svg">
<path fill-rule="evenodd" clip-rule="evenodd" d="M5.4218 17.7229C5.21558 17.9291 5.09973 18.2089 5.09973 18.5006C5.09973 18.7923 5.21558 19.072 5.4218 19.2783C9.71741 23.5739 16.6828 23.5739 20.9784 19.2783C25.274 14.9827 25.274 8.01731 20.9784 3.72171C16.6828 -0.573902 9.71741 -0.573902 5.4218 3.72171C3.62423 5.51372 2.50446 7.87416 2.25372 10.4H1.09979C0.882263 10.4 0.669629 10.4646 0.488774 10.5854C0.307918 10.7063 0.166961 10.8781 0.083722 11.0791C0.000482813 11.28 -0.021301 11.5012 0.0211244 11.7145C0.0635498 11.9279 0.168279 12.1239 0.322074 12.2777L2.52213 14.4778L2.52433 14.48C2.62645 14.5821 2.74773 14.663 2.88122 14.7182C3.0147 14.7733 3.15776 14.8015 3.30218 14.8012C3.44661 14.8009 3.58954 14.7721 3.7228 14.7164C3.85605 14.6607 3.97698 14.5792 4.07867 14.4767L6.27872 12.2777C6.43258 12.1238 6.53734 11.9277 6.57973 11.7143C6.62212 11.5008 6.60024 11.2796 6.51686 11.0786C6.43349 10.8775 6.29236 10.7058 6.11134 10.585C5.93031 10.4642 5.71753 10.3998 5.4999 10.4H4.46808C4.71678 8.42692 5.62644 6.59627 7.04879 5.2064C8.47113 3.81652 10.3223 2.94939 12.3006 2.74631C14.2789 2.54324 16.2676 3.01621 17.9426 4.08813C19.6177 5.16005 20.8803 6.76771 21.5247 8.64909C22.169 10.5305 22.1572 12.5746 21.491 14.4484C20.8248 16.3222 19.5437 17.9151 17.8563 18.9675C16.1689 20.0199 14.1748 20.4698 12.199 20.2437C10.2232 20.0177 8.38226 19.1291 6.97614 17.7229C6.7699 17.517 6.49039 17.4013 6.19897 17.4013C5.90755 17.4013 5.62804 17.517 5.4218 17.7229ZM11 7.09989C11 6.80814 11.1159 6.52835 11.3222 6.32205C11.5285 6.11576 11.8083 5.99986 12.1001 5.99986C12.3918 5.99986 12.6716 6.11576 12.8779 6.32205C13.0842 6.52835 13.2001 6.80814 13.2001 7.09989V11.5H17.6002C17.892 11.5 18.1718 11.6159 18.378 11.8222C18.5843 12.0285 18.7002 12.3083 18.7002 12.6C18.7002 12.8918 18.5843 13.1716 18.378 13.3779C18.1718 13.5842 17.892 13.7001 17.6002 13.7001H12.1001C11.8083 13.7001 11.5285 13.5842 11.3222 13.3779C11.1159 13.1716 11 12.8918 11 12.6V7.09989Z" fill="currentColor"/>
</svg>
