<svg width="21" height="23" viewBox="0 0 21 23" fill="currentColor" xmlns="http://www.w3.org/2000/svg">
<path d="M8.82708 1.07349C9.29092 0.702258 9.86732 0.5 10.4614 0.5C11.0555 0.5 11.6319 0.702258 12.0958 1.07349L19.9424 7.35078C20.5626 7.84699 20.9243 8.59877 20.9243 9.3939V19.8845C20.9243 20.5781 20.6488 21.2434 20.1583 21.7339C19.6677 22.2244 19.0025 22.5 18.3088 22.5H13.0777C12.7804 22.5 12.4953 22.3819 12.2851 22.1717C12.0749 21.9615 11.9568 21.6763 11.9568 21.3791V13.5324H8.96757V21.3791C8.96757 21.6763 8.84947 21.9615 8.63925 22.1717C8.42903 22.3819 8.14392 22.5 7.84662 22.5H2.61554C1.92186 22.5 1.25658 22.2244 0.766074 21.7339C0.275565 21.2434 0 20.5781 0 19.8845V9.3924C0 8.59877 0.361692 7.84699 0.981949 7.35078L8.82708 1.07349ZM10.6953 2.82366C10.6291 2.77078 10.5469 2.74199 10.4622 2.74199C10.3774 2.74199 10.2952 2.77078 10.229 2.82366L2.38238 9.10096C2.33843 9.13606 2.30296 9.18063 2.27863 9.23136C2.25431 9.28208 2.24175 9.33764 2.24189 9.3939V19.8845C2.24189 20.0907 2.40929 20.2581 2.61554 20.2581H6.72568V12.4115C6.72568 12.1142 6.84378 11.8291 7.05399 11.6189C7.26421 11.4086 7.54933 11.2905 7.84662 11.2905H13.0777C13.375 11.2905 13.6601 11.4086 13.8703 11.6189C14.0806 11.8291 14.1987 12.1142 14.1987 12.4115V20.2581H18.3088C18.4079 20.2581 18.5029 20.2187 18.573 20.1487C18.6431 20.0786 18.6824 19.9836 18.6824 19.8845V9.3924C18.6824 9.3364 18.6697 9.28113 18.6454 9.23068C18.6211 9.18024 18.5857 9.1359 18.5419 9.10096L10.6953 2.82366Z" fill="currentColor"/>
</svg>
