<svg width="14" height="14" viewBox="0 0 14 14" fill="curentColor" xmlns="http://www.w3.org/2000/svg">
<path fill-rule="evenodd" clip-rule="evenodd" d="M2.07 6.22135C2.07 3.88124 3.86605 2.07 5.97826 2.07C8.09047 2.07 9.88652 3.88124 9.88652 6.22135C9.88652 8.56147 8.09047 10.3727 5.97826 10.3727C3.86605 10.3727 2.07 8.56147 2.07 6.22135ZM5.97826 0C2.6303 0 0 2.83278 0 6.22135C0 9.60993 2.6303 12.4427 5.97826 12.4427C7.26319 12.4427 8.44242 12.0254 9.40781 11.3196L11.5847 13.6036C11.9791 14.0173 12.6342 14.0331 13.048 13.6387C13.4618 13.2443 13.4775 12.5892 13.0831 12.1754L10.8476 9.82995C11.5478 8.80641 11.9565 7.55706 11.9565 6.22135C11.9565 2.83278 9.32622 0 5.97826 0Z" fill="currentColor"/>
</svg>
