<svg width="13" height="12" viewBox="0 0 13 12" fill="none" xmlns="http://www.w3.org/2000/svg">
<path opacity="0.4" d="M5.12978 8.62769H0.956854C0.428716 8.62769 0 9.0696 0 9.61399C0 10.1577 0.428716 10.6003 0.956854 10.6003H5.12978C5.65792 10.6003 6.08663 10.1577 6.08663 9.61399C6.08663 9.0696 5.65792 8.62769 5.12978 8.62769Z" fill="#939393"/>
<path opacity="0.4" d="M12.6924 2.25022C12.6924 1.70656 12.2637 1.26465 11.7362 1.26465H7.5633C7.03516 1.26465 6.60645 1.70656 6.60645 2.25022C6.60645 2.79462 7.03516 3.23653 7.5633 3.23653H11.7362C12.2637 3.23653 12.6924 2.79462 12.6924 2.25022Z" fill="#939393"/>
<path d="M4.36472 2.24953C4.36472 3.4924 3.38812 4.49978 2.18236 4.49978C0.977302 4.49978 0 3.4924 0 2.24953C0 1.00738 0.977302 0 2.18236 0C3.38812 0 4.36472 1.00738 4.36472 2.24953Z" fill="#303030"/>
<path d="M12.6924 9.58766C12.6924 10.8298 11.7158 11.8372 10.51 11.8372C9.30494 11.8372 8.32764 10.8298 8.32764 9.58766C8.32764 8.34478 9.30494 7.3374 10.51 7.3374C11.7158 7.3374 12.6924 8.34478 12.6924 9.58766Z" fill="#303030"/>
</svg>
